<svg xmlns="http://www.w3.org/2000/svg" viewBox="0 0 1000 282"><defs><style>.cls-1,.cls-4{fill:#fcb316;}.cls-2{fill:#fff;}.cls-3{fill:#fca644;}.cls-4{font-size:147.79px;font-family:Montserrat-Bold, Montserrat;font-weight:700;}.cls-5{letter-spacing:-0.01em;}.cls-6{letter-spacing:-0.02em;}</style></defs><title>Apeirox White</title><g id="Art_3" data-name="Art 3"><polygon class="cls-1" points="64.8 240.67 114.75 240.67 127.31 217.53 77.33 217.58 64.8 240.67"/><polygon class="cls-1" points="179.01 122.49 154.01 76.55 114.27 149.64 164.23 149.64 179.01 122.49"/><polygon class="cls-1" points="307 240.67 287.92 205.57 287.93 205.57 264.06 161.68 264.06 161.68 185.9 17.89 160.82 64.01 185.85 109.93 214.03 161.68 157.72 161.68 157.72 161.62 107.74 161.68 94.36 161.68 71.03 205.55 83.89 205.55 83.87 205.57 133.52 205.57 133.72 205.8 133.85 205.55 237.93 205.57 257.05 240.67 307 240.67"/><rect class="cls-1" x="57.45" y="186.63" width="56.39" height="12.82"/><rect class="cls-1" x="57.45" y="168.69" width="56.39" height="12.82"/><circle class="cls-2" cx="227.3" cy="167.37" r="39.35"/><circle cx="227.3" cy="167.37" r="35.12"/><rect class="cls-3" x="214.17" y="145.42" width="2.59" height="41.45"/><rect class="cls-3" x="219.07" y="145.42" width="2.59" height="41.45"/><rect class="cls-3" x="228.8" y="153.36" width="2.59" height="20.66" transform="translate(393.8 -66.4) rotate(90)"/><rect class="cls-3" x="228.8" y="158.27" width="2.59" height="20.66" transform="translate(398.7 -61.5) rotate(90)"/><rect class="cls-3" x="228.8" y="136.39" width="2.59" height="20.66" transform="translate(376.82 -83.38) rotate(90)"/><rect class="cls-3" x="228.8" y="141.29" width="2.59" height="20.66" transform="translate(381.72 -78.48) rotate(90)"/><rect class="cls-3" x="228.8" y="170.34" width="2.59" height="20.66" transform="translate(410.77 -49.43) rotate(90)"/><rect class="cls-3" x="228.8" y="175.24" width="2.59" height="20.66" transform="translate(415.67 -44.52) rotate(90)"/><text class="cls-4" transform="translate(323.9 184.15)">Apei<tspan class="cls-5" x="352.93" y="0">r</tspan><tspan class="cls-6" x="415.3" y="0">o</tspan><tspan x="509.59" y="0">x</tspan></text></g></svg>