<svg width="100" height="100" viewBox="0 0 100 100" fill="none" xmlns="http://www.w3.org/2000/svg">
<path d="M50 93.7629C77.6125 93.7629 100 72.7734 100 46.8814C100 20.9895 77.6125 0 50 0C22.3875 0 0 20.9895 0 46.8814C0 58.6688 4.64375 69.4515 12.3125 77.6892C11.7063 84.4937 9.70625 91.9546 7.49375 97.5536C7 98.7993 7.95625 100.192 9.2 99.978C23.3 97.5 31.6812 93.6959 35.325 91.7135C40.1119 93.0816 45.0457 93.7706 50 93.7629V93.7629Z" fill="#2F95DC"/>
<path d="M25 39.375C25 37.5516 25.7243 35.803 27.0136 34.5136C28.303 33.2243 30.0516 32.5 31.875 32.5H68.125C69.9484 32.5 71.697 33.2243 72.9864 34.5136C74.2757 35.803 75 37.5516 75 39.375V43.75H25V39.375Z" fill="white"/>
<path d="M25 47.5H75V60.625C75 62.4483 74.2757 64.197 72.9864 65.4863C71.697 66.7757 69.9484 67.5 68.125 67.5H31.875C30.0516 67.5 28.303 66.7757 27.0136 65.4863C25.7243 64.197 25 62.4483 25 60.625V47.5ZM59.375 56.25C58.8777 56.25 58.4008 56.4475 58.0492 56.7992C57.6975 57.1508 57.5 57.6277 57.5 58.125C57.5 58.6223 57.6975 59.0992 58.0492 59.4508C58.4008 59.8024 58.8777 60 59.375 60H65.625C66.1223 60 66.5992 59.8024 66.9508 59.4508C67.3025 59.0992 67.5 58.6223 67.5 58.125C67.5 57.6277 67.3025 57.1508 66.9508 56.7992C66.5992 56.4475 66.1223 56.25 65.625 56.25H59.375Z" fill="white"/>
<circle cx="80" cy="27.5" r="5" fill="white"/>
</svg>
