<svg width="50" height="50" viewBox="0 0 50 50" fill="none" xmlns="http://www.w3.org/2000/svg">
<path d="M25 46.8814C38.8063 46.8814 50 36.3867 50 23.4407C50 10.4947 38.8063 0 25 0C11.1937 0 0 10.4947 0 23.4407C0 29.3344 2.32188 34.7258 6.15625 38.8446C5.85313 42.2469 4.85313 45.9773 3.74688 48.7768C3.5 49.3996 3.97813 50.0962 4.6 49.989C11.65 48.75 15.8406 46.848 17.6625 45.8567C20.056 46.5408 22.5229 46.8853 25 46.8814V46.8814Z" fill="white"/>
<path d="M12.5 19.6875C12.5 18.7758 12.8622 17.9015 13.5068 17.2568C14.1515 16.6122 15.0258 16.25 15.9375 16.25H34.0625C34.9742 16.25 35.8485 16.6122 36.4932 17.2568C37.1378 17.9015 37.5 18.7758 37.5 19.6875V21.875H12.5V19.6875Z" fill="#2F95DC"/>
<path d="M12.5 23.75H37.5V30.3125C37.5 31.2242 37.1378 32.0985 36.4932 32.7432C35.8485 33.3878 34.9742 33.75 34.0625 33.75H15.9375C15.0258 33.75 14.1515 33.3878 13.5068 32.7432C12.8622 32.0985 12.5 31.2242 12.5 30.3125V23.75ZM29.6875 28.125C29.4389 28.125 29.2004 28.2238 29.0246 28.3996C28.8488 28.5754 28.75 28.8139 28.75 29.0625C28.75 29.3111 28.8488 29.5496 29.0246 29.7254C29.2004 29.9012 29.4389 30 29.6875 30H32.8125C33.0611 30 33.2996 29.9012 33.4754 29.7254C33.6512 29.5496 33.75 29.3111 33.75 29.0625C33.75 28.8139 33.6512 28.5754 33.4754 28.3996C33.2996 28.2238 33.0611 28.125 32.8125 28.125H29.6875Z" fill="#2F95DC"/>
<circle cx="40" cy="13.75" r="2.5" fill="#2F95DC"/>
</svg>
